HIERARCHY
ROOT mixamorig:Hips
{
	OFFSET 0.000000 35.069874 -0.029489
	CHANNELS 6 Xposition Yposition Zposition Xrotation Yrotation Zrotation
	JOINT mixamorig:Spine
	{
		OFFSET 0.000000 6.876060 0.125662
		CHANNELS 3 Xrotation Yrotation Zrotation
		JOINT mixamorig:Spine1
		{
			OFFSET 0.000000 8.022060 0.146603
			CHANNELS 3 Xrotation Yrotation Zrotation
			JOINT mixamorig:Spine2
			{
				OFFSET 0.000000 9.168079 0.167547
				CHANNELS 3 Xrotation Yrotation Zrotation
				JOINT mixamorig:Neck
				{
					OFFSET 0.000000 10.314075 0.188489
					CHANNELS 3 Xrotation Yrotation Zrotation
					JOINT mixamorig:Head
					{
						OFFSET 0.000000 7.643753 -2.377445
						CHANNELS 3 Xrotation Yrotation Zrotation
						JOINT mixamorig:HeadTop_End
						{
							OFFSET 0.000000 43.788605 -13.619637
							CHANNELS 3 Xrotation Yrotation Zrotation
							End Site
							{
								OFFSET 0.000000 45.857788 0.000000
							}
						}
					}
				}
				JOINT mixamorig:LeftShoulder
				{
					OFFSET 4.392187 8.825001 0.174995
					CHANNELS 3 Xrotation Yrotation Zrotation
					JOINT mixamorig:LeftArm
					{
						OFFSET 8.774866 -2.970879 -0.026997
						CHANNELS 3 Xrotation Yrotation Zrotation
						JOINT mixamorig:LeftForeArm
						{
							OFFSET 8.450586 -0.797432 -0.648343
							CHANNELS 3 Xrotation Yrotation Zrotation
							JOINT mixamorig:LeftHand
							{
								OFFSET 18.458662 0.962311 0.193148
								CHANNELS 3 Xrotation Yrotation Zrotation
								JOINT mixamorig:LeftHandThumb1
								{
									OFFSET 2.379990 -1.333382 2.680594
									CHANNELS 3 Xrotation Yrotation Zrotation
									JOINT mixamorig:LeftHandThumb2
									{
										OFFSET 1.903984 -1.066746 2.144473
										CHANNELS 3 Xrotation Yrotation Zrotation
										JOINT mixamorig:LeftHandThumb3
										{
											OFFSET 0.966393 -1.489639 2.964555
											CHANNELS 3 Xrotation Yrotation Zrotation
											JOINT mixamorig:LeftHandThumb4
											{
												OFFSET 1.205181 -0.823021 1.625701
												CHANNELS 3 Xrotation Yrotation Zrotation
												End Site
												{
													OFFSET 1.050617 -0.818157 1.731923
												}
											}
										}
									}
								}
								JOINT mixamorig:LeftHandIndex1
								{
									OFFSET 7.830624 -0.787468 2.563931
									CHANNELS 3 Xrotation Yrotation Zrotation
									JOINT mixamorig:LeftHandIndex2
									{
										OFFSET 3.312897 -0.052605 1.515312
										CHANNELS 3 Xrotation Yrotation Zrotation
										JOINT mixamorig:LeftHandIndex3
										{
											OFFSET 3.460667 -0.207008 1.581951
											CHANNELS 3 Xrotation Yrotation Zrotation
											JOINT mixamorig:LeftHandIndex4
											{
												OFFSET 2.183182 0.110458 0.999585
												CHANNELS 3 Xrotation Yrotation Zrotation
												End Site
												{
													OFFSET 2.183868 0.110451 0.998074
												}
											}
										}
									}
								}
								JOINT mixamorig:LeftHandMiddle1
								{
									OFFSET 8.556145 -0.261200 0.258753
									CHANNELS 3 Xrotation Yrotation Zrotation
									JOINT mixamorig:LeftHandMiddle2
									{
										OFFSET 3.828903 -0.489014 -0.111505
										CHANNELS 3 Xrotation Yrotation Zrotation
										JOINT mixamorig:LeftHandMiddle3
										{
											OFFSET 3.696209 -0.166595 -0.107596
											CHANNELS 3 Xrotation Yrotation Zrotation
											JOINT mixamorig:LeftHandMiddle4
											{
												OFFSET 2.259281 0.534500 -0.065675
												CHANNELS 3 Xrotation Yrotation Zrotation
												End Site
												{
													OFFSET 2.259735 0.534134 -0.051267
												}
											}
										}
									}
								}
								JOINT mixamorig:LeftHandRing1
								{
									OFFSET 8.509293 -0.556679 -3.044941
									CHANNELS 3 Xrotation Yrotation Zrotation
									JOINT mixamorig:LeftHandRing2
									{
										OFFSET 2.995171 -0.303261 -0.843591
										CHANNELS 3 Xrotation Yrotation Zrotation
										JOINT mixamorig:LeftHandRing3
										{
											OFFSET 2.968273 -0.101997 -0.834287
											CHANNELS 3 Xrotation Yrotation Zrotation
											JOINT mixamorig:LeftHandRing4
											{
												OFFSET 1.521358 -0.461468 -0.418735
												CHANNELS 3 Xrotation Yrotation Zrotation
												End Site
												{
													OFFSET 1.516514 -0.460747 -0.436712
												}
											}
										}
									}
								}
							}
						}
					}
				}
				JOINT mixamorig:RightShoulder
				{
					OFFSET -4.392150 8.825024 0.141388
					CHANNELS 3 Xrotation Yrotation Zrotation
					JOINT mixamorig:RightArm
					{
						OFFSET -8.774886 -2.970947 -0.094209
						CHANNELS 3 Xrotation Yrotation Zrotation
						JOINT mixamorig:RightForeArm
						{
							OFFSET -8.450586 -0.797386 -0.330665
							CHANNELS 3 Xrotation Yrotation Zrotation
							JOINT mixamorig:RightHand
							{
								OFFSET -18.458664 0.962341 0.025780
								CHANNELS 3 Xrotation Yrotation Zrotation
								JOINT mixamorig:RightHandThumb1
								{
									OFFSET -2.390282 -1.240040 2.604684
									CHANNELS 3 Xrotation Yrotation Zrotation
									JOINT mixamorig:RightHandThumb2
									{
										OFFSET -1.912228 -0.992111 2.083740
										CHANNELS 3 Xrotation Yrotation Zrotation
										JOINT mixamorig:RightHandThumb3
										{
											OFFSET -0.876358 -1.555370 2.930126
											CHANNELS 3 Xrotation Yrotation Zrotation
											JOINT mixamorig:RightHandThumb4
											{
												OFFSET -1.227077 -0.755932 1.835223
												CHANNELS 3 Xrotation Yrotation Zrotation
												End Site
												{
													OFFSET -1.124962 -0.750702 1.901603
												}
											}
										}
									}
								}
								JOINT mixamorig:RightHandIndex1
								{
									OFFSET -8.716801 -0.633743 3.098187
									CHANNELS 3 Xrotation Yrotation Zrotation
									JOINT mixamorig:RightHandIndex2
									{
										OFFSET -3.319706 -0.240585 1.198087
										CHANNELS 3 Xrotation Yrotation Zrotation
										JOINT mixamorig:RightHandIndex3
										{
											OFFSET -3.153255 -0.154724 1.138827
											CHANNELS 3 Xrotation Yrotation Zrotation
											JOINT mixamorig:RightHandIndex4
											{
												OFFSET -1.818684 -0.003197 0.655154
												CHANNELS 3 Xrotation Yrotation Zrotation
												End Site
												{
													OFFSET -1.818668 -0.003197 0.655188
												}
											}
										}
									}
								}
								JOINT mixamorig:RightHandMiddle1
								{
									OFFSET -8.158691 -0.528496 0.196552
									CHANNELS 3 Xrotation Yrotation Zrotation
									JOINT mixamorig:RightHandMiddle2
									{
										OFFSET -3.890194 -0.261169 -0.136423
										CHANNELS 3 Xrotation Yrotation Zrotation
										JOINT mixamorig:RightHandMiddle3
										{
											OFFSET -3.903057 -0.179909 -0.137173
											CHANNELS 3 Xrotation Yrotation Zrotation
											JOINT mixamorig:RightHandMiddle4
											{
												OFFSET -2.366261 0.198380 -0.083987
												CHANNELS 3 Xrotation Yrotation Zrotation
												End Site
												{
													OFFSET -2.366409 0.198326 -0.079799
												}
											}
										}
									}
								}
								JOINT mixamorig:RightHandRing1
								{
									OFFSET -7.616104 -0.395126 -2.681268
									CHANNELS 3 Xrotation Yrotation Zrotation
									JOINT mixamorig:RightHandRing2
									{
										OFFSET -3.235790 -0.462120 -1.101476
										CHANNELS 3 Xrotation Yrotation Zrotation
										JOINT mixamorig:RightHandRing3
										{
											OFFSET -3.179264 -0.138618 -1.084847
											CHANNELS 3 Xrotation Yrotation Zrotation
											JOINT mixamorig:RightHandRing4
											{
												OFFSET -1.963291 -0.101624 -0.668250
												CHANNELS 3 Xrotation Yrotation Zrotation
												End Site
												{
													OFFSET -1.963745 -0.101669 -0.666919
												}
											}
										}
									}
								}
							}
						}
					}
				}
			}
		}
	}
	JOINT mixamorig:LeftUpLeg
	{
		OFFSET 10.205382 -3.823519 0.155145
		CHANNELS 3 Xrotation Yrotation Zrotation
		JOINT mixamorig:LeftLeg
		{
			OFFSET 0.283732 -12.998343 0.567794
			CHANNELS 3 Xrotation Yrotation Zrotation
			JOINT mixamorig:LeftFoot
			{
				OFFSET -1.058953 -10.688869 -2.184322
				CHANNELS 3 Xrotation Yrotation Zrotation
				JOINT mixamorig:LeftToeBase
				{
					OFFSET 0.108145 -7.191069 7.560211
					CHANNELS 3 Xrotation Yrotation Zrotation
					JOINT mixamorig:LeftToe_End
					{
						OFFSET 0.070226 0.081726 4.490266
						CHANNELS 3 Xrotation Yrotation Zrotation
						End Site
						{
							OFFSET 0.070226 0.081726 4.490267
						}
					}
				}
			}
		}
	}
	JOINT mixamorig:RightUpLeg
	{
		OFFSET -10.205383 -3.823513 0.005508
		CHANNELS 3 Xrotation Yrotation Zrotation
		JOINT mixamorig:RightLeg
		{
			OFFSET -0.283728 -12.998341 0.610627
			CHANNELS 3 Xrotation Yrotation Zrotation
			JOINT mixamorig:RightFoot
			{
				OFFSET 1.058956 -10.688892 -1.945833
				CHANNELS 3 Xrotation Yrotation Zrotation
				JOINT mixamorig:RightToeBase
				{
					OFFSET -0.108150 -7.191040 7.372945
					CHANNELS 3 Xrotation Yrotation Zrotation
					JOINT mixamorig:RightToe_End
					{
						OFFSET -0.070229 0.081738 4.479398
						CHANNELS 3 Xrotation Yrotation Zrotation
						End Site
						{
							OFFSET -0.070229 0.081738 4.479399
						}
					}
				}
			}
		}
	}
}
MOTION
Frames: 5
Frame Time: 0.016667
-4.193246 35.639915 -4.459646 5.726423 -7.184123 2.108109 11.727099 3.848474 1.981562 2.136633 0.564559 -0.402174 2.133620 0.538858 -0.401993 4.167981 -0.549674 -0.814872 9.857781 -3.288563 -2.670093 -0.000002 -0.000000 0.000000 1.021482 -7.973762 2.511225 24.771100 -37.649963 -55.229521 -3.971817 -34.327165 -9.535747 11.904959 -1.845697 -0.515731 8.214606 18.317411 1.845440 1.111051 27.862104 11.541946 -2.289489 -13.279000 -6.237952 0.000002 -0.000002 0.000001 9.244828 24.061332 -20.179842 9.131894 1.940434 -18.995244 10.422533 0.820735 -22.253839 -0.000001 -0.000000 -0.000002 -0.208458 -2.090682 -2.448142 0.709799 4.413086 -32.125559 -0.319645 3.259227 -34.399162 -0.000000 0.000000 -0.000004 -3.395575 -14.884635 -9.685718 -6.155019 6.127243 -27.469479 -0.421048 3.573915 -4.083489 -0.000000 -0.000001 0.000001 0.710009 4.995827 -3.938677 -9.230578 27.202314 38.281305 -9.568039 59.906968 13.854316 9.634701 4.132450 -12.560168 9.509197 -17.047853 0.199766 -0.386896 -30.116828 -13.748961 1.603849 14.152304 7.697691 0.000003 -0.000001 -0.000001 3.490704 -19.067257 6.381966 5.681922 -1.150546 14.983068 3.049022 -0.536136 8.293402 0.000000 0.000001 0.000002 -0.322195 2.409454 6.111575 -0.115173 -2.270639 15.778519 -0.383528 -0.992564 13.650940 0.000002 0.000001 -0.000004 -2.652458 18.884266 2.381605 -5.641476 -3.614811 18.700179 -1.746873 -1.283858 5.449792 -0.000000 -0.000001 -0.000002 -35.796957 17.596678 4.578008 35.428256 5.038462 -3.241900 -5.156841 -2.338912 -3.659771 -6.783941 -0.000030 0.000014 -0.000000 0.000000 -0.000001 -13.090410 -2.223043 -2.135246 26.006265 -9.501519 -3.385086 -5.317336 11.956272 4.219213 -13.557272 0.003040 -0.242455 -0.000000 0.000001 -0.000000 
-4.346751 35.355473 -4.364551 5.248591 -6.457388 1.572629 10.948957 3.847109 2.283727 2.242480 0.566600 -0.316930 2.239482 0.540212 -0.314407 4.357832 -0.614982 -1.244128 10.683030 -4.220900 -2.509749 -0.000000 0.000000 0.000000 1.058062 -8.143086 2.941051 25.200644 -36.018798 -56.729782 -4.669254 -39.045504 -9.957512 13.528878 -1.654658 -0.433941 8.214594 18.317387 1.845432 1.111048 27.862111 11.541958 -2.289491 -13.279002 -6.237960 0.000001 -0.000005 -0.000001 9.654032 24.055450 -21.111338 9.221037 1.941071 -19.178090 10.419191 0.820877 -22.246814 -0.000000 -0.000000 -0.000002 -0.208793 -2.016205 -2.904977 0.705836 4.404408 -32.067632 -0.319915 3.257923 -34.391512 0.000000 0.000000 0.000001 -3.434352 -14.847361 -9.860158 -6.179095 6.171595 -27.618833 -0.419495 3.572504 -4.076154 0.000002 0.000002 -0.000004 0.648330 4.471220 -4.645576 -7.548897 28.273095 35.373191 -9.322432 59.252861 13.642007 9.010997 3.935714 -12.014934 9.509192 -17.047862 0.199763 -0.386885 -30.116800 -13.748960 1.603845 14.152274 7.697695 -0.000001 0.000003 -0.000004 3.573959 -19.086400 6.614203 5.822504 -1.163280 15.345637 3.126465 -0.553013 8.499838 0.000000 0.000001 -0.000001 -0.323928 2.375596 6.329462 -0.109299 -2.330103 16.160533 -0.385812 -1.027549 13.868516 0.000001 0.000001 -0.000004 -2.718927 18.841464 2.609979 -5.732229 -3.720608 19.054834 -1.810620 -1.330617 5.654114 -0.000000 0.000001 -0.000002 -33.127268 18.069431 3.521945 25.750643 6.274967 -3.291627 -4.669497 -4.647664 -2.894670 -6.228642 -0.000027 0.000006 -0.000001 0.000000 0.000001 -10.134719 -2.752238 -1.965191 26.888080 -8.756726 -3.310366 -8.446861 11.594752 4.607208 -15.858063 -0.000014 0.000007 -0.000000 0.000001 0.000000 
-4.488218 35.032204 -4.267217 4.626348 -5.871628 1.033406 10.298482 3.931574 2.616527 2.249689 0.582010 -0.333871 2.248528 0.553270 -0.328900 4.625058 -0.660304 -1.638077 11.320619 -5.047496 -2.164710 -0.000003 0.000001 -0.000000 1.075260 -8.132713 3.330225 25.428400 -34.343687 -58.173042 -5.301930 -42.839001 -10.376134 13.724035 -0.949781 0.193714 8.214604 18.317398 1.845418 1.111031 27.862109 11.541958 -2.289498 -13.278997 -6.237954 0.000001 -0.000004 -0.000003 9.735413 24.053551 -21.296545 9.037292 1.939472 -18.801200 10.244100 0.826929 -21.878295 -0.000001 0.000003 -0.000000 -0.208770 -1.993646 -3.043619 0.657941 4.298058 -31.359202 -0.333742 3.190016 -33.990932 -0.000001 0.000001 -0.000000 -3.390294 -14.889698 -9.661990 -6.103571 6.033378 -27.152683 -0.337467 3.498319 -3.690767 0.000001 0.000005 -0.000004 0.573275 3.893920 -5.199604 -5.862588 29.683654 32.299445 -8.770857 57.684451 13.170530 8.879452 4.149751 -11.304646 9.509193 -17.047853 0.199764 -0.386890 -30.116811 -13.748968 1.603844 14.152289 7.697677 -0.000000 -0.000003 -0.000001 3.630765 -19.099284 6.772527 5.970119 -1.175676 15.726171 3.179293 -0.564364 8.640552 0.000000 -0.000001 -0.000001 -0.325039 2.352501 6.477966 -0.102703 -2.392462 16.561472 -0.387270 -1.051417 14.016830 -0.000002 -0.000002 0.000001 -2.764132 18.812134 2.765586 -5.826773 -3.832234 19.426894 -1.853959 -1.362606 5.793346 -0.000001 -0.000002 0.000001 -31.322370 18.565431 3.038897 18.878720 6.410171 -3.759725 -5.144091 -5.474884 -2.311366 -6.192953 -0.000010 0.000011 0.000003 -0.000000 -0.000001 -6.842972 -3.461801 -1.626504 25.838148 -7.507938 -3.077942 -11.560813 11.628155 4.472726 -17.665279 -0.000021 0.000009 0.000000 0.000000 -0.000000 
-4.605525 34.634186 -4.185415 3.992644 -5.511309 0.479222 9.966312 4.206509 3.164432 2.136563 0.619873 -0.512251 2.139729 0.587452 -0.505923 4.969257 -0.726725 -1.876554 11.625606 -5.763231 -1.781477 -0.000000 0.000000 0.000000 1.053471 -7.853766 3.581347 25.391833 -33.109325 -59.329434 -5.872630 -45.899944 -10.778444 12.626435 0.540745 1.182652 8.214610 18.317398 1.845436 1.111028 27.862111 11.541968 -2.289497 -13.279005 -6.237949 -0.000001 -0.000003 -0.000001 9.567707 24.057193 -20.914770 8.648267 1.932032 -18.003072 9.940097 0.834810 -21.238605 0.000001 0.000002 -0.000002 -0.208787 -2.010515 -2.940006 0.580149 4.117194 -30.163673 -0.356631 3.071888 -33.295728 0.000001 -0.000001 -0.000001 -3.283157 -14.991434 -9.182678 -5.949762 5.759738 -26.223398 -0.193903 3.370913 -3.021682 -0.000002 0.000001 0.000001 0.479810 3.203795 -5.545781 -4.459463 31.300161 29.330226 -7.978067 55.160140 12.507855 9.269794 4.824978 -10.384908 9.509187 -17.047876 0.199766 -0.386889 -30.116807 -13.748964 1.603835 14.152273 7.697686 0.000001 -0.000002 0.000003 3.670066 -19.108113 6.881977 6.139595 -1.188680 16.162830 3.215829 -0.572143 8.737810 -0.000000 -0.000001 -0.000002 -0.325760 2.336516 6.580605 -0.094585 -2.463931 17.021521 -0.388251 -1.067920 14.119344 -0.000000 0.000000 -0.000001 -2.795307 18.791770 2.873108 -5.934348 -3.961044 19.853611 -1.883883 -1.384796 5.889589 0.000001 -0.000002 0.000000 -31.711721 18.672125 3.085095 18.028197 5.722062 -3.749945 -8.898570 -4.496309 -2.655795 -6.063490 -0.000016 0.000015 -0.000001 -0.000001 -0.000001 -3.571911 -4.327829 -1.227573 23.735392 -5.747309 -2.443753 -14.797357 11.290350 3.969532 -17.337102 -0.000019 0.000008 0.000001 -0.000000 0.000000 
-4.695731 34.214878 -4.155969 3.459932 -5.397633 -0.007407 10.184995 4.700235 3.920339 1.882933 0.684114 -0.789187 1.892512 0.647812 -0.783854 5.269402 -0.818734 -2.016100 11.582564 -6.423502 -1.568185 0.000000 0.000000 -0.000000 0.980338 -7.263221 3.581066 24.949185 -32.605318 -60.087394 -6.421945 -48.555668 -11.184442 10.867161 2.403289 2.410152 8.214605 18.317393 1.845432 1.111054 27.862107 11.541933 -2.289497 -13.278978 -6.237943 0.000001 0.000003 0.000002 9.311352 24.060779 -20.331248 8.178299 1.915858 -17.038583 9.583158 0.839730 -20.487654 -0.000001 0.000003 0.000000 -0.208739 -2.041136 -2.752129 0.494109 3.903866 -28.767439 -0.381653 2.932869 -32.479868 0.000000 -0.000002 0.000003 -3.150303 -15.115217 -8.593470 -5.759633 5.435063 -25.109111 -0.023553 3.223481 -2.235964 0.000001 0.000002 -0.000002 0.365640 2.367457 -5.723652 -3.625320 33.098619 26.797673 -7.046386 51.712817 11.756400 10.114120 5.888166 -9.327604 9.509197 -17.047865 0.199770 -0.386896 -30.116838 -13.748958 1.603849 14.152298 7.697697 -0.000004 0.000001 -0.000002 3.710590 -19.117121 6.994831 6.341152 -1.202494 16.681882 3.253489 -0.580090 8.838097 0.000001 -0.000001 -0.000001 -0.326494 2.320057 6.686440 -0.084186 -2.548832 17.568375 -0.389235 -1.084925 14.225016 0.000001 0.000001 0.000001 -2.827415 18.770743 2.983920 -6.060985 -4.115217 20.360594 -1.914697 -1.407714 5.988777 -0.000001 0.000001 -0.000001 -33.994982 18.299371 3.082222 21.802075 5.367750 -4.891856 -13.500916 -4.026014 2.347817 -5.950645 -0.000023 0.000012 -0.000001 0.000002 0.000000 -1.062094 -5.217508 -0.953178 21.921260 -3.968013 -1.380174 -17.672828 10.574647 3.183943 -14.896914 -0.000020 0.000009 -0.000001 0.000000 0.000000 
